<svg id="Capa_1" enable-background="new 0 0 512 512" height="512" viewBox="0 0 512 512" width="512" xmlns="http://www.w3.org/2000/svg"><g><path d="m405.311 241c-7.605-83.977-78.386-150-164.311-150-90.981 0-165 74.019-165 165s74.019 165 165 165c85.925 0 156.706-66.022 164.311-150h30.689v-30zm-109.311 30h-70v-105h30v75h40z"/><path d="m256 482h-30v-31.595c-26.877-2.058-52.251-9.571-75-21.458v83.053h180c0-16.647 0-65.996 0-83.053-22.75 11.887-48.123 19.4-75 21.458z"/><path d="m226 29.99h30v31.605c26.877 2.058 52.25 9.571 75 21.458 0-12.109 0-72.75 0-83.053h-180v83.053c22.749-11.887 48.123-19.4 75-21.458z"/></g></svg>