<svg height="512" viewBox="0 0 512 512" width="512" xmlns="http://www.w3.org/2000/svg"><g id="flat"><path d="m373.3 303.906a248.125 248.125 0 0 0 -72-108.265 38.96 38.96 0 0 1 -11.3-41.641l6-18 7.635-7.636a47.107 47.107 0 0 0 11.876-19.964c.041-.139.083-.279.124-.419a47.166 47.166 0 0 0 -1.88-31.882l-1.755-4.099 16-48h-32l-40 80-40-80h-32l16 48-1.755 4.1a47.166 47.166 0 0 0 -1.88 31.882c.041.14.083.28.124.419a47.107 47.107 0 0 0 11.876 19.961l7.635 7.638 6 18a38.96 38.96 0 0 1 -11.3 41.641q-2.457 2.15-4.851 4.359a248.115 248.115 0 0 0 -67.149 103.906l-50.7 152.094h56v16h64v16h96v-16h64v-16h56z" fill="#ffb3b3"/><g fill="#faa6b2"><path d="m144.007 480a8.008 8.008 0 0 1 -7.8-9.8l48-208a8 8 0 1 1 15.59 3.6l-48 208a8 8 0 0 1 -7.79 6.2z"/><path d="m208.01 496a8 8 0 0 1 -7.929-9.133l32-224a8 8 0 1 1 15.838 2.264l-32 224a8 8 0 0 1 -7.909 6.869z"/><path d="m367.993 480a8 8 0 0 1 -7.788-6.2l-48-208a8 8 0 0 1 15.59-3.6l48 208a8.008 8.008 0 0 1 -7.8 9.8z"/><path d="m303.99 496a8 8 0 0 1 -7.909-6.869l-32-224a8 8 0 1 1 15.838-2.264l32 224a8 8 0 0 1 -7.929 9.133z"/></g><path d="m136 128a50.6 50.6 0 0 1 -32 32l12.82 8.547a50.6 50.6 0 0 1 17.189 19.471l1.991 3.982 1.991-3.982a50.6 50.6 0 0 1 17.189-19.471l12.82-8.547a50.6 50.6 0 0 1 -32-32z" fill="#fbb540"/><path d="m384 40a50.6 50.6 0 0 1 -32 32l12.82 8.547a50.6 50.6 0 0 1 17.189 19.471l1.991 3.982 1.991-3.982a50.6 50.6 0 0 1 17.189-19.471l12.82-8.547a50.6 50.6 0 0 1 -32-32z" fill="#fbb540"/><path d="m432 112a50.6 50.6 0 0 1 -32 32l12.82 8.547a50.6 50.6 0 0 1 17.189 19.471l1.991 3.982 1.991-3.982a50.6 50.6 0 0 1 17.189-19.471l12.82-8.547a50.6 50.6 0 0 1 -32-32z" fill="#fbb540"/></g></svg>