<?xml version="1.0" encoding="iso-8859-1"?>
<!-- Generator: Adobe Illustrator 19.0.0, SVG Export Plug-In . SVG Version: 6.00 Build 0)  -->
<svg version="1.1" id="Capa_1" xmlns="http://www.w3.org/2000/svg" xmlns:xlink="http://www.w3.org/1999/xlink" x="0px" y="0px"
	 viewBox="0 0 512.039 512.039" style="enable-background:new 0 0 512.039 512.039;" xml:space="preserve">
<path style="fill:#F44336;" d="M210.238,173.814c-27.733-27.733-107.264-61.568-152.192-79.253
	c-8.681-3.402-18.413-2.865-26.667,1.472c-8.145,4.231-14.053,11.789-16.192,20.715C4.738,162.429-0.353,209.172,0.02,256.033
	c-0.378,46.881,4.712,93.647,15.168,139.349c2.137,8.926,8.035,16.489,16.171,20.736c8.271,4.297,18,4.795,26.667,1.365
	c44.971-17.707,124.544-51.584,152.213-79.253c1.994-1.999,3.114-4.707,3.115-7.531V181.366
	C213.358,178.535,212.238,175.818,210.238,173.814z"/>
<path style="fill:#E57373;" d="M96.02,320.033c-5.891,0.295-10.905-4.242-11.2-10.133c-0.295-5.891,4.242-10.905,10.133-11.2
	c22.4-2.24,86.4-15.04,86.4-42.667c0-27.627-64-40.427-86.421-42.667c-5.864-0.567-10.157-5.781-9.59-11.644
	c0.004-0.037,0.007-0.074,0.011-0.11c0.65-5.865,5.88-10.127,11.755-9.579c10.795,1.109,105.579,12.245,105.579,64
	s-94.784,62.848-105.579,64H96.02z"/>
<path style="fill:#F44336;" d="M496.852,116.683c-2.156-8.902-8.062-16.433-16.192-20.651c-8.259-4.313-17.988-4.811-26.645-1.365
	c-44.928,17.685-124.459,51.499-152.213,79.253c-1.973,1.978-3.092,4.651-3.115,7.445v149.333c-0.005,2.831,1.115,5.548,3.115,7.552
	c27.733,27.733,107.221,61.547,152.213,79.275c3.774,1.436,7.781,2.159,11.819,2.133c14.729,0.042,27.557-10.041,30.997-24.363
	c10.456-45.674,15.554-92.41,15.189-139.264C512.399,209.151,507.308,162.385,496.852,116.683z"/>
<path style="fill:#E57373;" d="M416.02,320.033h-1.088c-10.795-1.088-105.579-12.224-105.579-64s94.784-62.848,105.579-64
	c5.891-0.589,11.144,3.709,11.733,9.6c0.589,5.891-3.709,11.144-9.6,11.733c-22.421,2.304-86.421,15.104-86.421,42.667
	s64,40.427,86.421,42.667c5.891,0.295,10.428,5.309,10.133,11.2c-0.295,5.891-5.309,10.428-11.2,10.133H416.02z"/>
<path style="fill:#D32F2F;" d="M307.497,175.329c-1.993-2.903-5.29-4.635-8.811-4.629h-85.333c-3.521-0.006-6.818,1.727-8.811,4.629
	c-30.936,49.356-30.936,112.052,0,161.408c1.993,2.903,5.29,4.635,8.811,4.629h85.333c3.513-0.001,6.801-1.733,8.789-4.629
	c30.936-49.356,30.936-112.052,0-161.408H307.497z"/>
<path d="M46.185,419.745c-5.146,0.004-10.218-1.232-14.784-3.605c-8.152-4.238-14.067-11.802-16.213-20.736
	C4.743,349.692-0.347,302.92,0.02,256.033c-0.367-46.881,4.723-93.645,15.168-139.349c4.149-17.119,21.39-27.633,38.508-23.484
	c1.474,0.357,2.921,0.819,4.329,1.382c44.907,17.685,124.459,51.499,152.213,79.232c4.092,4.237,3.975,10.99-0.262,15.083
	c-4.134,3.992-10.687,3.992-14.82,0c-25.963-25.941-110.037-60.715-144.96-74.475c-2.901-1.168-6.169-1.005-8.939,0.448
	c-2.684,1.368-4.628,3.85-5.312,6.784c-10.06,44.075-14.957,89.171-14.592,134.379c-0.365,45.214,4.532,90.318,14.592,134.4
	c0.69,2.926,2.633,5.4,5.312,6.763c2.77,1.453,6.038,1.616,8.939,0.448c34.944-13.76,118.997-48.533,144.96-74.496
	c4.237-4.092,10.99-3.975,15.083,0.262c3.992,4.134,3.992,10.687,0,14.82c-27.733,27.733-107.285,61.568-152.213,79.253
	C54.255,418.972,50.238,419.739,46.185,419.745z"/>
<path d="M96.02,320.033c-5.891,0.295-10.905-4.242-11.2-10.133c-0.295-5.891,4.242-10.905,10.133-11.2
	c22.4-2.24,86.4-15.061,86.4-42.667s-64-40.427-86.421-42.667c-5.891-0.589-10.189-5.842-9.6-11.733
	c0.589-5.891,5.842-10.189,11.733-9.6c10.816,1.109,105.579,12.245,105.579,64s-94.763,62.848-105.579,64H96.02z"/>
<path d="M298.686,341.366h-85.333c-3.513-0.001-6.801-1.733-8.789-4.629c-30.943-49.346-30.943-112.041,0-161.387
	c1.984-2.905,5.272-4.644,8.789-4.651h85.333c3.513,0.001,6.801,1.733,8.789,4.629c30.943,49.346,30.943,112.041,0,161.387
	C305.492,339.62,302.204,341.36,298.686,341.366z M219.39,320.033h73.259c10.738-19.638,16.475-41.619,16.704-64
	c-0.229-22.381-5.966-44.362-16.704-64H219.39c-10.738,19.638-16.475,41.619-16.704,64
	C202.915,278.414,208.652,300.394,219.39,320.033z"/>
<path d="M465.854,419.745c-4.054,0-8.071-0.767-11.84-2.261c-44.907-17.685-124.459-51.499-152.213-79.232
	c-4.092-4.237-3.975-10.99,0.262-15.083c4.134-3.992,10.687-3.992,14.82,0c25.963,25.941,110.016,60.736,144.96,74.475
	c2.901,1.168,6.169,1.005,8.939-0.448c2.684-1.368,4.628-3.85,5.312-6.784c10.06-44.075,14.957-89.171,14.592-134.379
	c0.365-45.214-4.532-90.318-14.592-134.4c-0.69-2.926-2.633-5.399-5.312-6.763c-2.77-1.453-6.038-1.616-8.939-0.448
	c-34.944,13.76-118.997,48.533-144.96,74.496c-4.237,4.092-10.99,3.975-15.083-0.262c-3.992-4.134-3.992-10.687,0-14.82
	c27.733-27.733,107.285-61.568,152.213-79.253c8.654-3.422,18.366-2.924,26.624,1.365c8.152,4.238,14.067,11.802,16.213,20.736
	c10.443,45.704,15.533,92.468,15.168,139.349c0.367,46.881-4.723,93.645-15.168,139.349
	C493.398,409.695,480.578,419.77,465.854,419.745z"/>
<path d="M416.02,320.033h-1.109c-10.816-1.109-105.579-12.245-105.579-64s94.763-62.848,105.579-64
	c5.887-0.572,11.138,3.699,11.776,9.579c0.596,5.854-3.661,11.085-9.515,11.691c-22.421,2.304-86.421,15.104-86.421,42.667
	s64,40.427,86.421,42.667c5.891,0.295,10.428,5.309,10.133,11.2c-0.295,5.891-5.309,10.428-11.2,10.133L416.02,320.033z"/>
<g>
</g>
<g>
</g>
<g>
</g>
<g>
</g>
<g>
</g>
<g>
</g>
<g>
</g>
<g>
</g>
<g>
</g>
<g>
</g>
<g>
</g>
<g>
</g>
<g>
</g>
<g>
</g>
<g>
</g>
</svg>
