<svg id="Capa_1" enable-background="new 0 0 512 512" height="512" viewBox="0 0 512 512" width="512" xmlns="http://www.w3.org/2000/svg"><g><path d="m345.563 117.676 23.671 13.324 59.263-41.93-26.121-55.125c-13.994-21.261-37.518-33.945-62.984-33.945h-9.839l-17.413 39.744c-5.895-1.874-12.081-2.838-18.385-2.838-13.351 0-26.258 4.472-36.716 12.402-10.458-7.93-23.365-12.402-36.716-12.402-6.232 0-12.35.942-18.186 2.774l-17.436-39.68h-9.827c-25.467 0-48.99 12.684-62.984 33.945l-28.386 52.86 61.527 44.195 23.55-13.257 14.33 100.456h148.395z"/><path d="m340.199 248.304h-166.154c-17.225 28.749-27.922 61.564-30.93 94.941-3.025 33.559 1.692 67.95 13.642 99.454l26.284 69.301h148.196l26.271-69.266c11.953-31.515 16.669-65.917 13.639-99.486-3.014-33.381-13.717-66.195-30.948-94.944z"/></g></svg>