<svg id="Capa_1" enable-background="new 0 0 512.022 512.022" height="512" viewBox="0 0 512.022 512.022" width="512" xmlns="http://www.w3.org/2000/svg"><g><path d="m91.011 0h180v60h-180z"/><path d="m114.981 312.939c-13.74-8.37-29.37-11.34-45.3-10.049-1.049 3.268-1.8 6.599-2.939 9.838-3.781 11.01-5.731 22.56-5.731 34.29 0 40.14 22.921 74.67 56.1 92.34 20.4-13.559 33.9-36.599 33.9-62.34 0-26.369-13.469-50.339-36.03-64.079z"/><path d="m298.761 486.763c45.749 15.659 74.7 25.259 92.25 25.259 33.089 0 60-26.909 60-60 0-20.94-10.62-40.02-28.442-51.059-104.07-64.44-151.558-93.871-151.558-202.8v-108.141h-180v77.829c0 34.801-4.351 70.331-12.541 104.171 18.239.39 36.03 5.49 52.139 15.3 31.56 19.23 50.402 52.769 50.402 89.7 0 28.35-11.821 54.3-30.632 73.411 5.131.78 10.261 1.589 15.632 1.589 31.229 0 85.17 18.45 132.75 34.741z"/></g></svg>