<?xml version="1.0" encoding="iso-8859-1"?>
<!-- Generator: Adobe Illustrator 19.0.0, SVG Export Plug-In . SVG Version: 6.00 Build 0)  -->
<svg version="1.1" id="Capa_1" xmlns="http://www.w3.org/2000/svg" xmlns:xlink="http://www.w3.org/1999/xlink" x="0px" y="0px"
	 viewBox="0 0 512 512" style="enable-background:new 0 0 512 512;" xml:space="preserve">
<g>
	<g>
		<path style="fill:#F0C419;" d="M361.666,337.655c-10.328-18.538-22.422-34.869-26.218-46.345
			c-3.606-10.17-5.369-20.902-5.208-31.691c0.926-17.315,6.775-34.005,16.861-48.11c1.854-2.737,3.796-5.561,6.003-8.474
			c15.66-20.38,24.881-44.969,26.483-70.621c-6.153-5.133-11.586-11.072-16.154-17.655C330.593,68.237,344.276,0,344.276,0h-35.31
			c0.601,11.762,0.601,23.548,0,35.31c0,0-19.421,45.286-41.578,63.823c-6.573,5.562-16.202,5.562-22.775,0
			c-22.157-18.538-41.578-63.823-41.578-63.823c-0.601-11.762-0.601-23.548,0-35.31h-35.31c0,0,17.655,88.276-35.31,132.414
			c1.087,19.123,6.586,37.735,16.066,54.378c3.069,5.662,6.551,11.091,10.417,16.243c8.835,11.201,15.565,23.913,19.862,37.517
			c4.66,16.726,3.887,34.5-2.207,50.759c-7.643,15.849-16.313,31.183-25.953,45.903c-10.593,18.803-19.421,39.901-15.89,60.116
			c1.042,6.217,3.259,12.179,6.532,17.567c22.422,37.341,63.647,80.949,97.28,93.572c11.177,4.708,23.78,4.708,34.957,0
			c33.633-12.623,74.858-56.232,97.28-93.572c3.273-5.388,5.49-11.35,6.532-17.567c3.531-20.039-5.12-40.872-15.625-59.586V337.655z
			"/>
		<path style="fill:#F0C419;" d="M377.291,397.33c-15.978,0.706-109.55,9.357-103.812,111.139c-11.177,4.708-23.78,4.708-34.957,0
			c2.913-52.259-20.303-79.978-45.727-94.72c0.073-0.467,0.102-0.94,0.088-1.412c-0.004-4.663-1.733-9.16-4.855-12.623
			c10.135-0.771,17.849-9.413,17.47-19.57c-0.38-10.157-8.717-18.199-18.882-18.212c-3.374,0.009-6.689,0.891-9.622,2.56
			c-1.216-1.179-2.514-2.27-3.884-3.266c0.607-1.79,0.906-3.671,0.883-5.561c0.028-5.027-1.951-9.857-5.497-13.42
			s-8.367-5.564-13.394-5.559c-1.517-0.009-3.029,0.169-4.502,0.53c9.64-14.72,18.31-30.054,25.953-45.903
			c6.094-16.258,6.867-34.033,2.207-50.759c0.258-1.129,0.376-2.285,0.353-3.443c-0.029,2.115,0.361,4.215,1.148,6.179
			c2.551,7.623,9.705,12.748,17.743,12.712c7.469-0.019,14.229-4.426,17.26-11.252s1.769-14.796-3.225-20.35
			c7.73-0.633,14.287-5.93,16.53-13.354c2.244-7.424-0.282-15.466-6.368-20.274s-14.493-5.405-21.197-1.505
			c-1.171-1.228-2.473-2.324-3.884-3.266c0.565-1.831,0.862-3.734,0.883-5.65c0-10.433-8.458-18.891-18.891-18.891
			c-10.433,0-18.891,8.458-18.891,18.891c-0.023,1.919,0.275,3.829,0.883,5.65c-1.422,0.964-2.752,2.057-3.972,3.266
			c-2.622-1.557-5.602-2.408-8.651-2.472c-9.481-16.643-14.98-35.255-16.066-54.378C185.379,88.276,167.724,0,167.724,0h35.31
			c-0.601,11.762-0.601,23.548,0,35.31c1.854,39.812,11.123,101.782,49.081,121.732c2.442,1.236,5.326,1.236,7.768,0
			c37.959-19.95,47.228-81.92,49.081-121.732c0.601-11.762,0.601-23.548,0-35.31h35.31c0,0-13.683,68.237,19.156,114.759h-0.353
			c-5.151,0-10.09,2.046-13.732,5.688c-3.642,3.642-5.688,8.582-5.688,13.732c-0.001,1.954,0.327,3.893,0.971,5.738
			c-1.448,0.998-2.807,2.121-4.061,3.354c-2.968-1.749-6.354-2.664-9.799-2.648c-10.457,0.012-19.033,8.29-19.413,18.74
			s7.572,19.33,18,20.101c-3.306,3.51-5.138,8.155-5.12,12.977c0,10.726,8.695,19.42,19.421,19.421
			c1.158,0.018,2.313-0.1,3.443-0.353c-10.085,14.105-15.935,30.796-16.861,48.11c-1.983-0.708-4.074-1.067-6.179-1.059
			c-10.428,0.012-18.879,8.463-18.891,18.891c0.021,1.916,0.318,3.819,0.883,5.65c-1.411,0.943-2.713,2.038-3.884,3.266
			c-2.916-1.709-6.242-2.594-9.622-2.56c-10.154-0.009-18.495,8.019-18.876,18.166c-0.38,10.147,7.337,18.776,17.463,19.528
			c-4.993,5.554-6.256,13.525-3.225,20.35c3.032,6.826,9.792,11.233,17.26,11.252c8.038,0.037,15.193-5.089,17.743-12.712
			c0.786-1.964,1.176-4.064,1.148-6.179c-0.029,2.115,0.361,4.215,1.148,6.179c2.594,7.591,9.722,12.697,17.743,12.712
			c9.108,0.011,16.949-6.425,18.714-15.36C372.171,356.458,380.822,377.291,377.291,397.33z"/>
	</g>
	<g>
		<path style="fill:#894B9D;" d="M212.039,224.397c4.993,5.554,6.256,13.525,3.225,20.35s-9.792,11.233-17.26,11.252
			c-8.038,0.037-15.193-5.089-17.743-12.712c-0.786-1.964-1.176-4.064-1.148-6.179c0.023,1.158-0.096,2.314-0.353,3.443
			c-4.297-13.604-11.027-26.316-19.862-37.517c-3.866-5.152-7.347-10.58-10.417-16.243c3.049,0.063,6.029,0.915,8.651,2.472
			c1.221-1.209,2.551-2.302,3.972-3.266c-0.607-1.821-0.906-3.73-0.883-5.65c0-10.433,8.458-18.891,18.891-18.891
			c10.433,0,18.891,8.458,18.891,18.891c-0.021,1.916-0.318,3.819-0.883,5.65c1.411,0.943,2.713,2.038,3.884,3.266
			c2.916-1.709,6.242-2.594,9.622-2.56c10.154-0.009,18.495,8.019,18.876,18.166C229.882,215.017,222.165,223.646,212.039,224.397z"
			/>
		<path style="fill:#894B9D;" d="M188.028,399.713c3.122,3.464,4.852,7.96,4.855,12.623c0.015,0.473-0.015,0.945-0.088,1.412
			c-17.885-9.76-37.737-15.372-58.086-16.419c-3.531-20.215,5.297-41.314,15.89-60.116c1.473-0.361,2.985-0.538,4.502-0.53
			c5.027-0.004,9.848,1.997,13.394,5.559c3.546,3.563,5.525,8.393,5.497,13.42c0.023,1.89-0.276,3.771-0.883,5.561
			c1.37,0.996,2.668,2.088,3.884,3.266c2.933-1.669,6.247-2.551,9.622-2.56c10.164,0.012,18.502,8.054,18.882,18.212
			C205.877,390.3,198.163,398.942,188.028,399.713z"/>
	</g>
	<path style="fill:#F29C1F;" d="M238.521,508.469c-33.633-12.623-74.858-56.232-97.28-93.572c-3.273-5.388-5.49-11.35-6.532-17.567
		c20.348,1.047,40.2,6.659,58.086,16.419C218.218,428.491,241.435,456.21,238.521,508.469z"/>
	<g>
		<path style="fill:#894B9D;" d="M361.666,337.655v0.088c-1.765,8.935-9.607,15.371-18.714,15.36
			c-8.022-0.015-15.149-5.121-17.743-12.712c-0.787-1.964-1.177-4.064-1.148-6.179c0.029,2.115-0.361,4.215-1.148,6.179
			c-2.551,7.623-9.705,12.748-17.743,12.712c-7.469-0.02-14.229-4.426-17.26-11.252c-3.032-6.826-1.769-14.796,3.225-20.35
			c-7.73-0.633-14.287-5.93-16.53-13.354s0.282-15.466,6.368-20.274c6.086-4.808,14.493-5.405,21.197-1.505
			c1.171-1.228,2.473-2.324,3.884-3.266c-0.565-1.831-0.862-3.734-0.883-5.65c0.012-10.428,8.463-18.879,18.891-18.891
			c2.106-0.007,4.196,0.351,6.179,1.059c-0.161,10.789,1.603,21.521,5.208,31.691C339.244,302.786,351.338,319.117,361.666,337.655z
			"/>
		<path style="fill:#894B9D;" d="M379.586,132.414c-1.602,25.651-10.823,50.241-26.483,70.621c-2.207,2.913-4.149,5.738-6.003,8.474
			c-1.13,0.253-2.285,0.371-3.443,0.353c-10.726,0-19.42-8.695-19.421-19.421c-0.018-4.822,1.814-9.466,5.12-12.977
			c-10.428-0.771-18.38-9.651-18-20.101s8.956-18.729,19.413-18.74c3.445-0.015,6.83,0.9,9.799,2.648l4.061-3.354
			c-0.644-1.845-0.972-3.784-0.971-5.738c0-5.151,2.046-10.09,5.688-13.732c3.642-3.642,8.582-5.688,13.732-5.688h0.353
			C368,121.342,373.434,127.28,379.586,132.414z"/>
	</g>
	<g>
		<path style="fill:#F29C1F;" d="M377.291,397.33c-1.042,6.217-3.259,12.179-6.532,17.567
			c-22.422,37.341-63.647,80.949-97.28,93.572C267.741,406.687,361.313,398.036,377.291,397.33z"/>
		<path style="fill:#F29C1F;" d="M308.966,35.31c-1.854,39.812-11.123,101.782-49.081,121.732c-2.442,1.236-5.326,1.236-7.768,0
			c-37.959-19.95-47.228-81.92-49.081-121.732c0,0,19.421,45.286,41.578,63.823c6.573,5.562,16.202,5.562,22.775,0
			C289.545,80.596,308.966,35.31,308.966,35.31z"/>
	</g>
</g>
<g>
</g>
<g>
</g>
<g>
</g>
<g>
</g>
<g>
</g>
<g>
</g>
<g>
</g>
<g>
</g>
<g>
</g>
<g>
</g>
<g>
</g>
<g>
</g>
<g>
</g>
<g>
</g>
<g>
</g>
</svg>
