<?xml version="1.0" encoding="iso-8859-1"?>
<!-- Generator: Adobe Illustrator 19.0.0, SVG Export Plug-In . SVG Version: 6.00 Build 0)  -->
<svg version="1.1" id="Capa_1" xmlns="http://www.w3.org/2000/svg" xmlns:xlink="http://www.w3.org/1999/xlink" x="0px" y="0px"
	 viewBox="0 0 468.293 468.293" style="enable-background:new 0 0 468.293 468.293;" xml:space="preserve">
<path style="fill:#3A556A;" d="M51.817,292.245V60.712c0-6.897,5.591-12.488,12.488-12.488h339.682
	c6.897,0,12.488,5.591,12.488,12.488v231.533H51.817z"/>
<polygon style="fill:#64798A;" points="0,388.119 51.817,292.245 416.475,292.245 468.293,388.119 "/>
<rect x="66.635" y="63.038" style="fill:#EBF0F3;" width="335.023" height="214.416"/>
<path style="fill:#3A556A;" d="M0,388.119h468.293v19.462c0,6.897-5.591,12.488-12.488,12.488H12.488
	C5.591,420.068,0,414.477,0,407.581V388.119z"/>
<polygon style="fill:#E1E6E9;" points="284.098,365.836 184.195,365.836 200.877,335.225 267.416,335.225 "/>
<g>
	<path style="fill:#D5D6DB;" d="M126.15,85.92l-30.701,30.701c-2.439,2.439-2.439,6.39,0,8.829c1.22,1.22,2.817,1.829,4.415,1.829
		c1.598,0,3.195-0.61,4.415-1.829L134.98,94.75c2.439-2.439,2.439-6.39,0-8.829C132.541,83.481,128.59,83.481,126.15,85.92z"/>
	<path style="fill:#D5D6DB;" d="M117.535,141.939l-19.39,19.39c-2.439,2.439-2.439,6.39,0,8.829c1.22,1.22,2.817,1.829,4.415,1.829
		c1.598,0,3.195-0.61,4.415-1.829l19.39-19.39c2.439-2.439,2.439-6.39,0-8.829C123.925,139.5,119.974,139.5,117.535,141.939z"/>
	<path style="fill:#D5D6DB;" d="M180.23,88.076c-2.439-2.439-6.39-2.439-8.829,0l-32.665,32.665c-2.439,2.439-2.439,6.39,0,8.829
		c1.22,1.22,2.817,1.829,4.415,1.829s3.195-0.61,4.415-1.829l32.665-32.665C182.669,94.466,182.669,90.515,180.23,88.076z"/>
</g>
<g>
</g>
<g>
</g>
<g>
</g>
<g>
</g>
<g>
</g>
<g>
</g>
<g>
</g>
<g>
</g>
<g>
</g>
<g>
</g>
<g>
</g>
<g>
</g>
<g>
</g>
<g>
</g>
<g>
</g>
</svg>
