<svg id="Filled" height="512" viewBox="0 0 512 512" width="512" xmlns="http://www.w3.org/2000/svg"><path d="m96 256a72 72 0 1 0 72 72 72.006 72.006 0 0 0 -72-72zm0 112a40 40 0 1 1 40-40 40 40 0 0 1 -40 40z" fill="#464c4f"/><path d="m144 304-28.686 28.686a16 16 0 0 1 -22.628 0l-1.372-1.372a16 16 0 0 1 0-22.628l28.686-28.686z" fill="#596063"/><path d="m416 256a72 72 0 1 0 72 72 72.006 72.006 0 0 0 -72-72zm0 112a40 40 0 1 1 40-40 40 40 0 0 1 -40 40z" fill="#464c4f"/><path d="m216 176h-96a32 32 0 0 1 32-32h64a16 16 0 0 1 16 16 16 16 0 0 1 -16 16z" fill="#464c4f"/><path d="m200 240h-144v-56l40-72h104v32h-48a32 32 0 0 0 -32 32h80z" fill="#eb423f"/><path d="m296 192v64h-96v-64a16 16 0 0 1 16-16h64a16 16 0 0 1 16 16z" fill="#d13330"/><path d="m472 176-64 80h-112v-32h72l26.66-32 3.74-4.49a32.025 32.025 0 0 1 24.59-11.51z" fill="#eb423f"/><path d="m401.27 336h-1.27a16 16 0 0 1 -12.8-6.4l-19.2-25.6h-168v-48h176l38.377 54.825a16 16 0 0 1 -13.107 25.175z" fill="#596063"/><path d="m394.66 192-26.66 32h-72v-32z" fill="#464c4f"/><path d="m240 304-40-64h-112l64 112h144a32 32 0 0 0 32-32v-16z" fill="#c7312e"/><path d="m424.3 248.431 53.947-67.431a8 8 0 0 0 -6.247-13h-49.012a39.893 39.893 0 0 0 -30.729 14.393l-1.34 1.607h-88.295a24.039 24.039 0 0 0 -22.624-16h-41.376a23.992 23.992 0 0 0 -22.624-32h-8v-24a8 8 0 0 0 -8-8h-104a8 8 0 0 0 -6.993 4.115l-40 72a8.006 8.006 0 0 0 -1.007 3.885v56a8 8 0 0 0 8 8h27.358l.524.917a80 80 0 1 0 85.447 111.083h126.671a40.045 40.045 0 0 0 40-40v-8h1.613a80 80 0 1 0 86.687-63.569zm-19.75-55.8a23.937 23.937 0 0 1 18.438-8.631h32.367l-51.2 64h-100.155v-16h64a8 8 0 0 0 6.146-2.879zm-40.297 23.369h-60.253v-16h73.586zm7.582 48 35.988 51.412a8 8 0 0 1 -6.553 12.588h-1.27a8.039 8.039 0 0 1 -6.4-3.2l-19.2-25.6a8 8 0 0 0 -6.4-3.2h-128.8a39.968 39.968 0 0 0 -7.217-32zm49.1 42.236-7.108-10.154c.722-.049 1.447-.082 2.177-.082a32 32 0 1 1 -29.814 43.6 24.088 24.088 0 0 0 13.81 4.4h1.27a24 24 0 0 0 19.661-37.764zm-196.935-18.236a24 24 0 1 1 -24-24 24.028 24.028 0 0 1 24 24zm64-96v56h-80v-56a8.009 8.009 0 0 1 8-8h64a8.009 8.009 0 0 1 8 8zm-64-32a8.009 8.009 0 0 1 -8 8h-86.629a24.042 24.042 0 0 1 22.629-16h64a8.009 8.009 0 0 1 8 8zm-160 26.073 36.707-66.073h91.293v16h-40a40.045 40.045 0 0 0 -40 40 8 8 0 0 0 8 8h73.376a23.885 23.885 0 0 0 -1.376 8v40h-128zm32 205.927a64 64 0 0 1 -3.445-127.9l9.288 16.255a48.806 48.806 0 0 0 -5.843-.355 48 48 0 1 0 44.008 67.138l5.046 8.831a7.987 7.987 0 0 0 6.4 3.994 64.144 64.144 0 0 1 -55.454 32.037zm-10.349-55.035 1.383 1.383a24.025 24.025 0 0 0 33.933 0l6.836-6.837a32 32 0 1 1 -35.313-35.311l-6.836 6.837a24.006 24.006 0 0 0 0 33.932zm24-9.932a8.005 8.005 0 0 1 -11.3 0l-1.383-1.383a8 8 0 0 1 0-11.3l14.4-14.4c.887.489 1.749 1.026 2.593 1.6l7.7 13.476zm210.349-7.033a24.027 24.027 0 0 1 -24 24h-139.357l-54.858-96h90.215v.805a40 40 0 1 0 40 63.167v.028h88zm96 72a64.056 64.056 0 0 1 -61.984-80h9.984l4.938 6.584a48 48 0 1 0 34.752-36.978l-9.616-13.736a64 64 0 1 1 21.926 124.13z"/><rect height="16" rx="8" width="16" x="160" y="200"/><rect height="16" rx="8" width="16" x="128" y="200"/><rect height="16" rx="8" width="16" x="96" y="200"/></svg>