<svg id="Layer_3" enable-background="new 0 0 64 64" height="512" viewBox="0 0 64 64" width="512" xmlns="http://www.w3.org/2000/svg"><g><path d="m40 30h-20c-1.105 0-2-.895-2-2 0-1.105.895-2 2-2h21" fill="#2d4d83"/><path d="m44.945 46c1.804 0 3.384-1.207 3.859-2.948 1.462-5.361 2.522-10.823 3.171-16.342l.05-.421c.649-5.519 1.709-10.981 3.171-16.342l.311-1.139c.327-1.2.493-2.439.493-3.683 0-1.726-1.399-3.125-3.125-3.125-1.154 0-2.214.636-2.757 1.654-4.729 8.867-8.409 18.254-10.967 27.973l-.387 1.472c-.253.962-.444 1.938-.571 2.923l-.193-.022-22.004-1.913c-.664-.058-1.33-.087-1.996-.087-3.314 0-6 2.686-6 6 0 3.314 2.686 6 6 6z" fill="#2d4d83"/><path d="m47.749 8.35c-3.599 7.464-6.487 15.255-8.598 23.276l-.387 1.472c-.253.962-.444 1.938-.571 2.923l-.193-.021-22.004-1.913c-.664-.058-1.33-.087-1.996-.087-2.994 0-5.469 2.196-5.92 5.064 4.333 2.977 9.637 4.735 15.372 4.735 14.609 0 26.452-11.372 26.452-25.399 0-3.571-.77-6.967-2.155-10.05z" fill="#4472b2"/><g><path d="m39 39h-2c0-.687.03-1.389.09-2.085l1.992.17c-.055.641-.082 1.285-.082 1.915z" fill="#2d4d83"/></g><path d="m19 58h26c1.105 0 2 .895 2 2 0 1.105-.895 2-2 2h-26c-1.105 0-2-.895-2-2 0-1.105.895-2 2-2z" fill="#2d4d83"/><path d="m26 58v-2c0-1.105.895-2 2-2h2v-4h-2c-1.105 0-2-.895-2-2v-2h12v2c0 1.105-.895 2-2 2h-2v4h2c1.105 0 2 .895 2 2v2" fill="#4472b2"/><path d="m52.875 1c-1.526 0-2.921.837-3.641 2.184-3.717 6.972-6.79 14.288-9.188 21.816h-20.046c-1.654 0-3 1.346-3 3s1.346 3 3 3h18.288c-.033.125-.071.248-.104.373l-.387 1.471c-.183.692-.333 1.392-.453 2.096l-21.261-1.849c-.693-.061-1.395-.091-2.083-.091-3.859 0-7 3.141-7 7s3.141 7 7 7h11v1c0 1.654 1.346 3 3 3h1v2h-1c-1.654 0-3 1.346-3 3v1h-6c-1.654 0-3 1.346-3 3s1.346 3 3 3h26c1.654 0 3-1.346 3-3s-1.346-3-3-3h-6v-1c0-1.654-1.346-3-3-3h-1v-2h1c1.654 0 3-1.346 3-3v-1h5.944c2.249 0 4.232-1.515 4.824-3.685 1.471-5.394 2.548-10.94 3.2-16.489l.049-.42c.642-5.448 1.699-10.897 3.144-16.196l.311-1.139c.35-1.286.528-2.613.528-3.946 0-2.274-1.851-4.125-4.125-4.125zm-32.875 28c-.552 0-1-.448-1-1s.448-1 1-1h19.426c-.2.665-.391 1.332-.58 2zm26 31c0 .552-.448 1-1 1h-26c-.552 0-1-.448-1-1s.448-1 1-1h26c.552 0 1 .448 1 1zm-9-12c0 .552-.448 1-1 1h-2c-.553 0-1 .447-1 1v4c0 .553.447 1 1 1h2c.552 0 1 .448 1 1v1h-10v-1c0-.552.448-1 1-1h2c.553 0 1-.447 1-1v-4c0-.553-.447-1-1-1h-2c-.552 0-1-.448-1-1v-1h10zm17.542-39.454-.311 1.139c-1.471 5.394-2.548 10.94-3.2 16.489l-.049.42c-.642 5.448-1.699 10.897-3.144 16.196-.354 1.301-1.544 2.21-2.894 2.21h-30.944c-2.757 0-5-2.243-5-5s2.243-5 5-5c.631 0 1.273.028 1.909.083l21.18 1.842c-.059.689-.089 1.382-.089 2.075h2c0-1.904.246-3.805.73-5.647l.387-1.471c2.535-9.63 6.196-18.969 10.882-27.757.371-.693 1.09-1.125 1.876-1.125 1.172 0 2.125.953 2.125 2.125 0 1.155-.154 2.306-.458 3.421z"/></g></svg>