<?xml version="1.0" encoding="iso-8859-1"?>
<!-- Generator: Adobe Illustrator 18.1.1, SVG Export Plug-In . SVG Version: 6.00 Build 0)  -->
<svg version="1.1" id="Capa_1" xmlns="http://www.w3.org/2000/svg" xmlns:xlink="http://www.w3.org/1999/xlink" x="0px" y="0px"
	 viewBox="0 0 382.393 382.393" style="enable-background:new 0 0 382.393 382.393;" xml:space="preserve">
<g>
	<path style="fill:#010002;" d="M312.282,148.682c-11.081,0-21.528,2.655-30.855,7.25l-21.445-39.34V99.456h26.851
		c4.111,0,7.459,3.347,7.459,7.459s-3.347,7.459-7.459,7.459v5.967c7.399,0,13.425-6.021,13.425-13.425s-6.027-13.425-13.425-13.425
		h-29.834c-1.647,0-2.983,1.337-2.983,2.983v17.901H130.245l-8.372-14.917h35.819v-5.967H99.307v5.967h15.723l10.036,17.883
		l-22.626,39.304c-9.684-5.06-20.669-7.96-32.328-7.96C31.451,148.682,0,180.134,0,218.793s31.457,70.111,70.117,70.111
		c37.651,0,68.38-29.858,69.962-67.127h46.81c0.979,0,1.897-0.483,2.452-1.289l67.354-97.451l19.494,35.759
		c-20.341,12.286-34.017,34.548-34.017,59.991c0,38.659,31.451,70.111,70.111,70.111s70.111-31.451,70.111-70.111
		S350.935,148.682,312.282,148.682z M133.658,120.34h117.655l-64.198,92.874L133.658,120.34z M128.503,123.335l53.23,92.475h-41.655
		c-1.002-23.617-13.694-44.215-32.472-56.166L128.503,123.335z M134.105,215.81H75.272l29.357-50.999
		C121.629,175.718,133.115,194.395,134.105,215.81z M70.117,282.937c-35.372,0-64.144-28.772-64.144-64.144
		s28.772-64.144,64.144-64.144c10.579,0,20.544,2.619,29.351,7.172l-29.805,51.786l-0.107-0.036l-4.523,8.109h5.084v0.095h63.995
		C132.536,255.758,104.474,282.937,70.117,282.937z M312.282,282.937c-35.372,0-64.144-28.772-64.144-64.144
		c0-23.193,12.411-43.487,30.902-54.752l30.622,56.184l5.245-2.858l-30.622-56.19c8.473-4.135,17.954-6.522,27.997-6.522
		c35.372,0,64.144,28.772,64.144,64.144S347.648,282.937,312.282,282.937z"/>
</g>
<g>
</g>
<g>
</g>
<g>
</g>
<g>
</g>
<g>
</g>
<g>
</g>
<g>
</g>
<g>
</g>
<g>
</g>
<g>
</g>
<g>
</g>
<g>
</g>
<g>
</g>
<g>
</g>
<g>
</g>
</svg>
