<svg id="Capa_1" enable-background="new 0 0 380.821 380.821" height="512" viewBox="0 0 380.821 380.821" width="512" xmlns="http://www.w3.org/2000/svg"><g><path d="m46.386 147.939-20.742 8.971 9.234 93.509h12.592l7.385-95.675z" fill="#27a2db"/><path d="m58.159 147.939h-11.29l7.599 102.48h12.593l9.233-93.509z" fill="#ebf0f3"/><path d="m85.547 147.939-20.742 8.971 9.234 93.509h12.592l7.588-98.305z" fill="#27a2db"/><path d="m97.32 147.939h-11.29l7.599 102.48h12.593l9.233-93.509z" fill="#ebf0f3"/><path d="m124.708 147.939-20.742 8.971 9.234 93.509h12.592l7.911-94.029z" fill="#27a2db"/><path d="m136.481 147.939h-11.29l7.599 102.48h12.593l9.233-93.509z" fill="#ebf0f3"/><path d="m163.869 147.939-20.742 8.971 9.234 93.509h12.592l7.387-95.703z" fill="#27a2db"/><path d="m175.642 147.939h-11.29l7.599 102.48h12.593l9.233-93.509z" fill="#ebf0f3"/><path d="m380.821 203.352h-135.132c-5.817 0-11.32 2.64-14.96 7.182l-30.638 38.219h-180.918c-10.588.001-19.173 8.584-19.173 19.174s8.585 19.173 19.173 19.173h190.122c5.818 0 11.32-2.64 14.96-7.182l30.638-38.219h125.927v-38.347z" fill="#e56353"/><path d="m196.091 147.944h-136.475c-15.914 0-30.217-6.864-40.149-17.754-4.87-5.368-8.705-11.734-11.082-18.751-1.956-5.522-2.991-11.504-2.991-17.716h136.475c15.875 0 30.179 6.826 40.11 17.716 4.87 5.369 8.704 11.734 11.12 18.751 1.956 5.56 2.992 11.542 2.992 17.754z" fill="#44c4a1"/><path d="m196.076 147.943h-136.475c-15.914 0-30.217-6.864-40.148-17.754-4.87-5.369-8.705-11.734-11.082-18.751-1.956-5.522-2.991-11.504-2.991-17.716h5.982c.077.23.154.46.23.69 2.377 7.017 6.212 13.383 11.082 18.751 9.932 10.89 24.235 17.754 40.149 17.754h130.492c1.802 5.33 2.761 11.082 2.761 17.026z" fill="#3ea69b"/></g></svg>