<svg height="512" viewBox="0 0 64 64" width="512" xmlns="http://www.w3.org/2000/svg"><g id="flat"><path d="m50 16v-2a2 2 0 0 0 2-2v-5h2v5a4 4 0 0 1 -4 4z" fill="#d3843d"/><path d="m25 10.976c.065 0 .125.017.19.02a3 3 0 1 1 5.62 0c.064-.005.125-.02.19-.02a3 3 0 1 1 -2.163 5.071 3.993 3.993 0 1 1 -3.837-5.071z" fill="#87cee9"/><path d="m49 57 2-26h-36l2 26z" fill="#6caade"/><path d="m13 25h20v6h-20z" fill="#2d75bb"/><path d="m45 25h8v6h-8z" fill="#2d75bb"/><path d="m33 25h12v16h-12z" fill="#98ecb7"/><path d="m40 31h2v10h-2z" fill="#4da19a"/><path d="m36 35h2v6h-2z" fill="#4da19a"/><g fill="#195c85"><path d="m48 25h2v3h-2z"/><path d="m28 25h2v3h-2z"/><path d="m24 25h2v3h-2z"/><path d="m20 25h2v3h-2z"/><path d="m16 25h2v3h-2z"/></g><path d="m39 12h8v4h-8z" fill="#f9bb4b" transform="matrix(-1 0 0 -1 86 28)"/><path d="m53 9 4-1v-4l-4-1z" fill="#f9bb4b"/><path d="m43 3h10v6h-3l-3 3h-8v-3h-4c0-3.314 4-6 8-6z" fill="#ffd782"/><path d="m37 25h12l-2-9h-8z" fill="#e33e5c"/><circle cx="16" cy="19" fill="#50b4f8" r="2"/><circle cx="10" cy="11" fill="#50b4f8" r="3"/><circle cx="18" cy="5" fill="#50b4f8" r="2"/><path d="m49 57h-32a4.248 4.248 0 0 0 4 4h24a4.248 4.248 0 0 0 4-4z" fill="#2d75bb"/><path d="m24 54h-3a1 1 0 0 1 -.992-.876l-1-8 1.984-.248.891 7.124h2.117z" fill="#f4f4e6"/><path d="m26 52h2v2h-2z" fill="#f4f4e6"/><path d="m30 52h2v2h-2z" fill="#f4f4e6"/></g></svg>