<?xml version="1.0" encoding="iso-8859-1"?>
<!-- Generator: Adobe Illustrator 19.0.0, SVG Export Plug-In . SVG Version: 6.00 Build 0)  -->
<svg version="1.1" id="Capa_1" xmlns="http://www.w3.org/2000/svg" xmlns:xlink="http://www.w3.org/1999/xlink" x="0px" y="0px"
	 viewBox="0 0 480.023 480.023" style="enable-background:new 0 0 480.023 480.023;" xml:space="preserve">
<path style="fill:#4398D1;" d="M100.012,152.02h224v144h-224V152.02z"/>
<path style="fill:#3E8CC7;" d="M148.012,296.02h176v-144h-32L148.012,296.02z"/>
<g>
	<path style="fill:#87CED9;" d="M132.012,184.02h160v80h-160V184.02z"/>
	<circle style="fill:#87CED9;" cx="140.012" cy="80.02" r="72"/>
	<circle style="fill:#87CED9;" cx="284.012" cy="80.02" r="72"/>
</g>
<path style="fill:#4398D1;" d="M444.012,296.02h-32l-48-40v-64l48-40h32V296.02z"/>
<path style="fill:#6BB6C2;" d="M140.012,112.02c-17.673,0-32-14.327-32-32s14.327-32,32-32s32,14.327,32,32
	S157.685,112.02,140.012,112.02z M140.012,64.02c-8.837,0-16,7.163-16,16s7.163,16,16,16s16-7.163,16-16
	S148.848,64.02,140.012,64.02z"/>
<path style="fill:#4398D1;" d="M324.012,192.02h40v64h-40V192.02z"/>
<path style="fill:#3570AB;" d="M188.012,296.02h48v32h-48V296.02z"/>
<g>
	<path style="fill:#2A7DB8;" d="M188.012,216.02h16v16h-16V216.02z"/>
	<path style="fill:#2A7DB8;" d="M220.012,216.02h16v16h-16V216.02z"/>
</g>
<path style="fill:#DE4C3C;" d="M252.012,216.02h16v16h-16V216.02z"/>
<path style="fill:#2A7DB8;" d="M156.012,216.02h16v16h-16V216.02z"/>
<g>
	<path style="fill:#3570AB;" d="M252.012,336.02h-80c-4.418,0-8-3.582-8-8s3.582-8,8-8h80c4.418,0,8,3.582,8,8
		S256.43,336.02,252.012,336.02z"/>
	<path style="fill:#3570AB;" d="M212.012,480.02c-4.418,0-8-3.582-8-8v-144c0-4.418,3.582-8,8-8s8,3.582,8,8v144
		C220.012,476.439,216.43,480.02,212.012,480.02z"/>
	<path style="fill:#3570AB;" d="M124.012,480.02c-4.418,0.001-8-3.581-8.001-7.999c0-1.119,0.235-2.226,0.689-3.249l64-144
		c1.794-4.038,6.522-5.858,10.56-4.064s5.858,6.522,4.064,10.56l0,0l-64,144C130.04,478.158,127.174,480.021,124.012,480.02
		L124.012,480.02z"/>
	<path style="fill:#3570AB;" d="M300.012,480.02c-3.162,0-6.028-1.862-7.312-4.752l-64-144c-1.794-4.038,0.026-8.766,4.064-10.56
		s8.766,0.026,10.56,4.064l64,144c1.794,4.038-0.025,8.765-4.063,10.559C302.238,479.786,301.131,480.02,300.012,480.02
		L300.012,480.02z"/>
</g>
<path style="fill:#4398D1;" d="M68.012,240.02l-32,8v-48l32,8V240.02z"/>
<path style="fill:#3E8CC7;" d="M68.012,208.02h32v32h-32V208.02z"/>
<path style="fill:#78C3CF;" d="M326.484,21.972c-25.368,52.056-71.616,85.512-99.448,101.944
	c24.215,31.497,69.378,37.4,100.875,13.185s37.4-69.378,13.185-100.875C336.927,30.804,332.007,26.005,326.484,21.972z"/>
<path style="fill:#6BB6C2;" d="M284.012,112.02c-17.673,0-32-14.327-32-32s14.327-32,32-32s32,14.327,32,32
	S301.685,112.02,284.012,112.02z M284.012,64.02c-8.837,0-16,7.163-16,16s7.163,16,16,16s16-7.163,16-16
	S292.848,64.02,284.012,64.02z"/>
<path d="M444.012,144.02h-32c-1.87-0.001-3.682,0.652-5.12,1.848l-45.776,38.152h-29.104v-32c-0.017-2.328-1.066-4.529-2.864-6.008
	c36.48-24.88,45.884-74.621,21.004-111.101S275.53-10.973,239.05,13.907c-11.626,7.929-20.953,18.785-27.039,31.473
	c-19.111-39.802-66.868-56.575-106.67-37.464s-56.575,66.868-37.464,106.67c6.082,12.666,15.394,23.505,26.998,31.426
	c-1.798,1.479-2.847,3.68-2.864,6.008v48H68.988l-31.032-7.76c-4.286-1.074-8.631,1.53-9.704,5.816
	c-0.159,0.636-0.24,1.288-0.24,1.944v48c0,4.418,3.582,8,8,8c0.655,0,1.308-0.081,1.944-0.24l31.032-7.76h23.024v48
	c0,4.418,3.582,8,8,8h80v16h-8c-4.418,0-8,3.582-8,8s3.582,8,8,8h3.688l-59,132.752c-1.794,4.038,0.026,8.766,4.064,10.56
	s8.766-0.026,10.56-4.064l61.888-139.248h10.8v136c0,4.418,3.582,8,8,8c4.418,0,8-3.582,8-8v-136h10.8L292.7,475.268
	c1.794,4.038,6.522,5.858,10.56,4.064s5.858-6.522,4.064-10.56l0,0l-59-132.752h3.688c4.418,0,8-3.582,8-8s-3.582-8-8-8h-8v-16h80
	c4.418,0,8-3.582,8-8v-32h29.104l45.776,38.152c1.438,1.196,3.25,1.849,5.12,1.848h32c4.418,0,8-3.582,8-8v-144
	C452.012,147.602,448.43,144.02,444.012,144.02L444.012,144.02z M284.012,16.02c35.346,0,64,28.654,64,64s-28.654,64-64,64
	s-64-28.654-64-64C220.051,44.691,248.682,16.06,284.012,16.02z M236.22,144.02h-48.416c10.302-7.709,18.603-17.778,24.208-29.36
	C217.616,126.243,225.918,136.311,236.22,144.02z M76.012,80.02c0-35.346,28.654-64,64-64s64,28.654,64,64s-28.654,64-64,64
	C104.682,143.981,76.051,115.35,76.012,80.02z M44.012,210.268l16,4v19.504l-16,4V210.268z M76.012,232.02v-16h16v16H76.012z
	 M228.012,320.02h-32v-16h32V320.02z M316.012,288.02h-208v-128h208V288.02z M332.012,200.02h24v48h-24V200.02z M436.012,288.02
	h-21.104l-42.896-35.752v-56.496l42.896-35.752h21.104V288.02z"/>
<path d="M172.012,80.02c0-17.673-14.327-32-32-32s-32,14.327-32,32s14.327,32,32,32S172.012,97.693,172.012,80.02z M124.012,80.02
	c0-8.837,7.163-16,16-16s16,7.163,16,16s-7.163,16-16,16S124.012,88.857,124.012,80.02z"/>
<path d="M284.012,112.02c17.673,0,32-14.327,32-32s-14.327-32-32-32s-32,14.327-32,32S266.339,112.02,284.012,112.02z
	 M284.012,64.02c8.837,0,16,7.163,16,16s-7.163,16-16,16s-16-7.163-16-16S275.175,64.02,284.012,64.02z"/>
<path d="M292.012,176.02h-160c-4.418,0-8,3.582-8,8v80c0,4.418,3.582,8,8,8h160c4.418,0,8-3.582,8-8v-80
	C300.012,179.602,296.43,176.02,292.012,176.02z M284.012,256.02h-144v-64h144V256.02z"/>
<path d="M188.012,216.02h16v16h-16V216.02z"/>
<path d="M220.012,216.02h16v16h-16V216.02z"/>
<path d="M252.012,216.02h16v16h-16V216.02z"/>
<path d="M156.012,216.02h16v16h-16V216.02z"/>
<g>
</g>
<g>
</g>
<g>
</g>
<g>
</g>
<g>
</g>
<g>
</g>
<g>
</g>
<g>
</g>
<g>
</g>
<g>
</g>
<g>
</g>
<g>
</g>
<g>
</g>
<g>
</g>
<g>
</g>
</svg>
