<?xml version="1.0"?>
<svg xmlns="http://www.w3.org/2000/svg" xmlns:xlink="http://www.w3.org/1999/xlink" width="512" height="512" viewBox="0 0 512 512"><defs><linearGradient id="a" data-name="New Gradient Swatch 1" x1="-8.632" y1="488.632" x2="529.023" y2="-49.023" gradientUnits="userSpaceOnUse"><stop offset="0" stop-color="#003f8a"/><stop offset="0.518" stop-color="#00d7df"/><stop offset="1" stop-color="#006df0"/></linearGradient><linearGradient id="b" x1="-36.632" y1="460.632" x2="501.023" y2="-77.023" xlink:href="#a"/><linearGradient id="c" x1="-16.617" y1="480.647" x2="521.038" y2="-57.009" xlink:href="#a"/><linearGradient id="d" x1="-120.632" y1="376.632" x2="417.023" y2="-161.023" xlink:href="#a"/><linearGradient id="e" x1="-96.632" y1="400.632" x2="441.023" y2="-137.023" xlink:href="#a"/><linearGradient id="f" x1="-84.632" y1="412.632" x2="453.023" y2="-125.023" xlink:href="#a"/><linearGradient id="h" x1="-62.632" y1="434.632" x2="475.023" y2="-103.023" xlink:href="#a"/><linearGradient id="i" x1="55.368" y1="552.632" x2="593.023" y2="14.977" xlink:href="#a"/><linearGradient id="j" x1="79.368" y1="576.632" x2="617.023" y2="38.977" xlink:href="#a"/><linearGradient id="k" x1="91.368" y1="588.632" x2="629.023" y2="50.977" xlink:href="#a"/><linearGradient id="m" x1="113.368" y1="610.632" x2="651.023" y2="72.977" xlink:href="#a"/></defs><g><path d="M476,40H36A28.031,28.031,0,0,0,8,68V380a28.031,28.031,0,0,0,28,28H196.9l-10.67,32H168a8,8,0,0,0-8,8v16H104a8,8,0,0,0,0,16H408a8,8,0,0,0,0-16H352V448a8,8,0,0,0-8-8H325.77L315.1,408H476a28.031,28.031,0,0,0,28-28V68A28.031,28.031,0,0,0,476,40ZM336,456v8H176v-8ZM203.1,440l10.67-32h84.46l10.67,32ZM488,380a12.01,12.01,0,0,1-12,12H36a12.01,12.01,0,0,1-12-12V368H488Zm0-28H24V68A12.01,12.01,0,0,1,36,56H476a12.01,12.01,0,0,1,12,12Z" fill="url(#a)"/><path d="M304,168a48,48,0,1,0-48,48A48.054,48.054,0,0,0,304,168Zm-48,32a32,32,0,1,1,32-32A32.036,32.036,0,0,1,256,200Z" fill="url(#b)"/><path d="M170.992,292.614a119.8,119.8,0,0,0,170.016,0,8.087,8.087,0,0,0,1.32-1.353,120,120,0,1,0-172.656,0A8.087,8.087,0,0,0,170.992,292.614ZM184,282.974V264a32.036,32.036,0,0,1,32-32h80a32.036,32.036,0,0,1,32,32v18.974a103.812,103.812,0,0,1-144,0ZM256,104a103.951,103.951,0,0,1,87.984,159.388A48.047,48.047,0,0,0,296,216H216a48.047,48.047,0,0,0-47.984,47.388A103.951,103.951,0,0,1,256,104Z" fill="url(#c)"/><path d="M40,208h80a8,8,0,0,0,8-8V152a8,8,0,0,0-8-8H40a8,8,0,0,0-8,8v48A8,8,0,0,0,40,208Zm8-48h64v32H48Z" fill="url(#d)"/><path d="M40,232h80a8,8,0,0,0,0-16H40a8,8,0,0,0,0,16Z" fill="url(#e)"/><path d="M40,256h80a8,8,0,0,0,0-16H40a8,8,0,0,0,0,16Z" fill="url(#f)"/><path d="M40,280H72a8,8,0,0,0,0-16H40a8,8,0,0,0,0,16Z" fill="url(#f)"/><path d="M104,264H96a8,8,0,0,0,0,16h8a8,8,0,0,0,0-16Z" fill="url(#h)"/><path d="M392,208h80a8,8,0,0,0,8-8V152a8,8,0,0,0-8-8H392a8,8,0,0,0-8,8v48A8,8,0,0,0,392,208Zm8-48h64v32H400Z" fill="url(#i)"/><path d="M392,232h80a8,8,0,0,0,0-16H392a8,8,0,0,0,0,16Z" fill="url(#j)"/><path d="M392,256h80a8,8,0,0,0,0-16H392a8,8,0,0,0,0,16Z" fill="url(#k)"/><path d="M392,280h32a8,8,0,0,0,0-16H392a8,8,0,0,0,0,16Z" fill="url(#k)"/><path d="M456,264h-8a8,8,0,0,0,0,16h8a8,8,0,0,0,0-16Z" fill="url(#m)"/></g></svg>
