<?xml version="1.0" encoding="iso-8859-1"?>
<!-- Generator: Adobe Illustrator 19.0.0, SVG Export Plug-In . SVG Version: 6.00 Build 0)  -->
<svg version="1.1" id="Capa_1" xmlns="http://www.w3.org/2000/svg" xmlns:xlink="http://www.w3.org/1999/xlink" x="0px" y="0px"
	 viewBox="0 0 512.38 512.38" style="enable-background:new 0 0 512.38 512.38;" xml:space="preserve">
<g>
	<path style="fill:#F44336;" d="M234.7,245.713c-2.308,0-4.554-0.749-6.4-2.133c-3.157-2.325-78.933-59.136-78.933-136.533
		c0-67.797,42.667-106.667,117.333-106.667c53.536-2.675,106.829,8.827,154.496,33.344c5.123,2.908,6.92,9.418,4.012,14.542
		c-2.863,5.044-9.232,6.877-14.337,4.125C366.334,29.703,316.615,19.123,266.7,21.713c-43.797,0-96,14.805-96,85.333
		c0,66.517,69.653,118.891,70.4,119.467c4.713,3.535,5.668,10.221,2.133,14.933C241.218,244.132,238.057,245.713,234.7,245.713z"/>
	<path style="fill:#F44336;" d="M245.366,512.38c-5.891,0-10.667-4.776-10.667-10.667c0-5.891,4.776-10.667,10.667-10.667
		c117.952,0,160-49.579,160-96c0-34.027-58.027-70.571-100.395-97.237c-12.672-7.979-24.427-15.403-33.813-22.08
		c-4.795-3.429-5.903-10.095-2.475-14.891s10.095-5.903,14.891-2.475c9.088,6.4,20.48,13.675,32.768,21.333
		C365.516,310.716,426.7,349.244,426.7,395.046C426.7,449.169,379.19,512.38,245.366,512.38z"/>
</g>
<path style="fill:#CFD8DC;" d="M499.532,12.881c-16.763-16.678-43.873-16.609-60.551,0.155c-0.048,0.048-0.095,0.096-0.143,0.144
	L2.806,494.545c-3.926,4.392-3.548,11.135,0.844,15.061c4.048,3.619,10.169,3.619,14.218,0L499.532,73.211
	C516.188,56.55,516.188,29.542,499.532,12.881z"/>
<path style="fill:#455A64;" d="M437.366,85.713c-5.891,0.011-10.675-4.757-10.686-10.648c-0.005-2.84,1.123-5.565,3.134-7.571
	l21.333-21.333c4.093-4.237,10.845-4.354,15.083-0.262c4.237,4.093,4.354,10.845,0.262,15.083c-0.086,0.089-0.173,0.176-0.262,0.262
	l-21.333,21.333C442.901,84.579,440.193,85.707,437.366,85.713z"/>
<path style="fill:#F44336;" d="M437.366,256.38c-5.891,0.336-10.939-4.168-11.275-10.059c-0.336-5.891,4.168-10.939,10.059-11.275
	c36.203-4.139,54.549-29.291,54.549-74.667c0-24.661-17.835-56.085-50.219-88.448c-4.093-4.237-3.976-10.99,0.262-15.083
	c4.134-3.993,10.687-3.993,14.821,0c36.949,36.928,56.469,72.725,56.469,103.531c0,56.363-26.091,90.411-73.429,96H437.366z"/>
<path d="M10.7,512.38c-5.891-0.003-10.664-4.781-10.661-10.673c0.001-2.648,0.988-5.201,2.767-7.162L438.838,13.179
	c16.286-17.03,43.295-17.633,60.325-1.347c17.03,16.286,17.633,43.295,1.347,60.325c-0.321,0.335-0.647,0.665-0.978,0.99
	L17.868,509.606C15.906,511.389,13.35,512.378,10.7,512.38z M469.366,21.713c-5.658,0.001-11.083,2.25-15.083,6.251L163.766,348.646
	l321.067-290.88c8.13-8.528,7.807-22.032-0.721-30.161C480.138,23.817,474.856,21.706,469.366,21.713z"/>
<path d="M437.366,85.713c-5.891,0.011-10.675-4.757-10.686-10.648c-0.005-2.84,1.123-5.565,3.134-7.571l21.333-21.333
	c4.093-4.237,10.845-4.354,15.083-0.262c4.237,4.093,4.354,10.845,0.262,15.083c-0.086,0.089-0.173,0.176-0.262,0.262
	l-21.333,21.333C442.901,84.579,440.193,85.707,437.366,85.713z"/>
<path d="M234.7,245.713c-2.308,0-4.554-0.749-6.4-2.133c-3.157-2.325-78.933-59.136-78.933-136.533
	c0-67.797,42.667-106.667,117.333-106.667c53.536-2.675,106.829,8.827,154.496,33.344c5.186,2.795,7.124,9.264,4.329,14.45
	c-2.795,5.186-9.264,7.124-14.45,4.329c-0.068-0.037-0.137-0.075-0.204-0.113C366.334,29.703,316.615,19.123,266.7,21.713
	c-43.797,0-96,14.805-96,85.333c0,66.517,69.653,118.891,70.4,119.467c4.713,3.535,5.668,10.221,2.133,14.933
	C241.218,244.132,238.057,245.713,234.7,245.713z"/>
<path d="M437.366,256.38c-5.891,0.336-10.939-4.168-11.275-10.059c-0.336-5.891,4.168-10.939,10.059-11.275
	c36.203-4.139,54.549-29.291,54.549-74.667c0-24.661-17.835-56.085-50.219-88.448c-4.093-4.237-3.976-10.99,0.262-15.083
	c4.134-3.993,10.687-3.993,14.821,0c36.949,36.928,56.469,72.725,56.469,103.531c0,56.363-26.091,90.411-73.429,96H437.366z"/>
<path d="M245.366,512.38c-5.891,0-10.667-4.776-10.667-10.667c0-5.891,4.776-10.667,10.667-10.667c117.952,0,160-49.579,160-96
	c0-34.027-58.027-70.571-100.395-97.237c-12.672-7.979-24.427-15.403-33.813-22.08c-4.795-3.429-5.903-10.095-2.475-14.891
	s10.095-5.903,14.891-2.475c9.088,6.4,20.48,13.675,32.768,21.333C365.516,310.716,426.7,349.244,426.7,395.046
	C426.7,449.169,379.19,512.38,245.366,512.38z"/>
<g>
</g>
<g>
</g>
<g>
</g>
<g>
</g>
<g>
</g>
<g>
</g>
<g>
</g>
<g>
</g>
<g>
</g>
<g>
</g>
<g>
</g>
<g>
</g>
<g>
</g>
<g>
</g>
<g>
</g>
</svg>
